<svg width="395" height="119" viewBox="0 0 395 119" fill="none" xmlns="http://www.w3.org/2000/svg">

                <g clip-path="url(#clip0_597_3366)">

                    <path d="M363 5C345.334 5 331 19.5451 331 37.5C331 55.4549 345.321 70 363 70C380.666 70 395 55.4549 395 37.5C395 19.5451 380.666 5 363 5ZM377.964 38.8852V38.9918H377.938C377.872 46.2777 372.036 52.165 364.849 52.165C361.059 52.165 357.649 50.5266 355.262 47.916C355.17 47.8094 355.092 47.7029 355.013 47.583C354.895 47.4232 354.777 47.25 354.659 47.0768C354.567 46.9436 354.475 46.8105 354.397 46.6639C355.643 47.1967 356.967 47.4498 358.305 47.4365H358.318H358.357H358.37H358.462H358.489H358.528H358.607H358.633H358.672H358.751H358.777H358.816H358.908L359 47.4232L359.105 47.4098L359.21 47.3965L359.302 47.3832H359.367H359.407L359.472 47.3699L359.629 47.3566L359.721 47.3432L359.787 47.3299L359.826 47.3166L359.879 47.3033L359.931 47.29L360.01 47.2766L360.089 47.2633L360.22 47.2367L360.285 47.2234L360.364 47.21L360.416 47.1967C360.495 47.1834 360.587 47.1568 360.666 47.1301L360.823 47.0902L360.889 47.0635L360.941 47.0502C361.085 47.0102 361.23 46.9703 361.374 46.917C361.426 46.9037 361.492 46.877 361.544 46.8504L361.623 46.8238C361.715 46.7971 361.807 46.7572 361.898 46.7172L361.99 46.6773C362.043 46.6506 362.095 46.624 362.161 46.6107L362.213 46.584C362.279 46.5574 362.344 46.5174 362.41 46.4908L362.528 46.4375L362.607 46.3975C362.659 46.3709 362.725 46.3309 362.79 46.3043L362.921 46.2377C363.17 46.1045 363.407 45.958 363.643 45.7982C364.115 45.4785 364.574 45.1189 364.993 44.7193C368.993 40.9232 369.216 34.5697 365.479 30.5072L365.466 30.4939L365.452 30.4672L365.439 30.4539L365.426 30.4406L365.4 30.4139L365.374 30.4006L365.361 30.3873L365.348 30.374L365.321 30.3473L365.295 30.3207L365.256 30.3074L365.23 30.2807L365.203 30.2541L365.177 30.2275L365.151 30.2141L365.125 30.1875L365.098 30.1609L365.072 30.1342L365.046 30.1209L365.02 30.0943L364.993 30.0676L364.98 30.0543L364.954 30.0277L364.928 30.0143L364.915 29.9877L364.889 29.9744L364.862 29.9611L364.849 29.9477L364.823 29.9344L364.797 29.9211L364.771 29.8945L364.744 29.8811L364.731 29.8678L364.705 29.8545L364.692 29.8412L364.666 29.8279L364.652 29.8145L364.626 29.8012L364.6 29.7879L364.587 29.7746L364.561 29.7613L364.548 29.748L364.534 29.7346L364.521 29.708L364.508 29.6947L364.482 29.6814L364.469 29.668L364.456 29.6547L364.43 29.6414L364.403 29.6281L364.39 29.6148L364.377 29.6014L364.351 29.5881L364.338 29.5748L364.311 29.5615L364.298 29.5482L364.285 29.5348L364.272 29.5215L364.259 29.5082L364.246 29.4949L364.233 29.4816V29.3883L364.22 29.375L364.207 29.3617L364.193 29.3484L364.18 29.335L364.167 29.3217L364.154 29.3084L364.128 29.2951L364.115 29.2818L364.102 29.2684L364.089 29.2551L364.075 29.2418L364.062 29.2285L364.049 29.2152L364.036 29.2018L364.023 29.1885L364.01 29.1752L363.997 29.1619L363.984 29.1486L363.97 29.1352L363.957 29.1219L363.944 29.1086L363.931 29.0953L363.918 29.082L363.892 29.0686L363.866 29.0553L363.852 29.042L363.826 29.0287L363.813 29.0154L363.8 29.0021L363.774 28.9887L363.761 28.9754L363.734 28.9621L363.656 28.9754L363.63 28.9621L363.616 28.9488L363.59 28.9354L363.577 28.9221L363.564 28.9088L363.538 28.8955L363.525 28.8822L363.511 28.8689L363.498 28.8555L363.485 28.8422L363.472 28.8289L363.446 28.8156L363.433 28.8023L363.42 28.7889L363.407 28.7756L363.393 28.7623L363.38 28.749L363.367 28.7357L363.354 28.7223L363.341 28.709L363.328 28.6957L363.315 28.6824L363.302 28.6691L363.289 28.6557L363.275 28.6424L363.262 28.6291L363.249 28.6158L363.236 28.6025L363.223 28.5891L363.21 28.5758L363.197 28.5625L363.184 28.5492L363.17 28.5359L363.144 28.5225L363.131 28.5092L363.118 28.4959L363.105 28.4826L363.079 28.4693L363.066 28.4559L363.052 28.4426L363.026 28.4293L363.013 28.416L363 28.4027L362.987 28.3893L362.974 28.376L362.961 28.3627L362.948 28.3494L362.934 28.3361L362.921 28.3227L362.908 28.3094L362.895 28.2961L362.882 28.2828L362.869 28.2695L362.856 28.2561H362.843L362.83 28.2428L362.803 28.2295L362.79 28.2162L362.777 28.2029L362.764 28.1895L362.751 28.1762L362.738 28.1629L362.725 28.1496L362.711 28.1363L362.698 28.123L362.685 28.1096L362.672 28.0963L362.659 28.083L362.646 28.0697L362.633 28.0564H362.62H362.607L362.593 28.043L362.58 28.0297H362.567L362.554 28.0164H362.541L362.528 28.0031H362.515L362.502 27.9898L362.489 27.9764H362.475L362.462 27.9631H362.449L362.436 27.9498L362.423 27.9365H362.41H362.397L362.384 27.9232H362.37L362.357 27.9098H362.344L362.331 27.8965H362.318L362.305 27.8832H362.292L362.279 27.8699H362.266H362.252L362.239 27.8566L362.226 27.8432H362.213H362.2L362.187 27.8299L362.174 27.8166H362.161L362.148 27.8033H362.134L362.121 27.79H362.108C358.685 26.4713 354.672 27.124 351.813 29.8279C346.816 34.5564 347.013 43.3074 351.682 48.3689C356.246 53.3371 361.925 55.0287 367.21 53.8566L367.052 53.9098L366.869 53.9631L366.685 54.0164L366.502 54.0697L366.318 54.123L366.134 54.1629L365.951 54.2162L365.754 54.2561L365.557 54.2961L365.361 54.3361L365.164 54.376L364.967 54.4027L364.771 54.4293L364.574 54.4559L364.377 54.4826L364.18 54.5092L363.984 54.5225L363.787 54.5359L363.59 54.5492L363.393 54.5625L363.184 54.5758H362.987H362.79H362.593H362.384H362.174L361.61 54.7623H361.413L361.216 54.749L361.007 54.7357L360.81 54.7223L360.613 54.709L360.416 54.6824L360.22 54.6557L360.023 54.6291L359.826 54.6025L359.629 54.5758L359.433 54.5359L359.236 54.4959L359.039 54.4559L358.856 54.416L358.659 54.376L358.475 54.3227L358.252 54.2828L358.069 54.2295L357.885 54.1762L357.702 54.123L357.518 54.0697L357.334 54.0164L357.151 53.9498L356.967 53.8832L356.784 53.8166L356.6 53.75L356.416 53.6834L356.233 53.6035L356.062 53.5236L355.892 53.4436L355.721 53.3637L355.538 53.2838L355.367 53.2039L355.197 53.124L355.026 53.0307L354.856 52.9375L354.685 52.8443L354.515 52.751L354.344 52.6578L354.187 52.5645L354.016 52.458L353.859 52.3514L353.702 52.2449L353.544 52.1383L353.387 52.0318L353.229 51.9252L353.072 51.8186L352.915 51.6988L352.757 51.5789L352.613 51.459L352.43 51.3658L352.272 51.2459L352.128 51.126L351.984 51.0061L351.839 50.8863L351.695 50.7531L351.551 50.6332L351.407 50.5L351.262 50.3668L351.131 50.2336L351 50.1004L350.869 49.9672L350.738 49.8207L350.607 49.6875L350.475 49.541L350.357 49.3945L350.226 49.248L350.108 49.1014L349.99 48.9549L349.872 48.8084L349.754 48.6619L349.636 48.502L349.518 48.3555L349.4 48.1957L349.295 48.0492L349.19 47.8893L349.085 47.7295L348.98 47.5697L348.875 47.4098L348.77 47.25L348.666 47.0902L348.561 46.9303L348.469 46.7572L348.377 46.5973L348.285 46.4242L348.193 46.251L348.102 46.0779L348.01 45.9047L347.931 45.7316L347.852 45.5584L347.774 45.3852L347.695 45.2121L347.616 45.0256L347.551 44.8525L347.472 44.666L347.407 44.4795L347.341 44.293L347.275 44.1066L347.21 43.9201L347.144 43.7336L347.092 43.5471L347.039 43.3607L346.987 43.1742L346.934 42.9877L346.882 42.8012L346.843 42.6148L346.79 42.4283L346.751 42.2285L346.711 42.0287L346.672 41.8422L346.633 41.6424L346.593 41.4426L346.567 41.2428L346.541 41.043L346.515 40.8432L346.489 40.6434L346.462 40.4436L346.449 40.2439L346.436 40.0441L346.423 39.8443L346.41 39.6445L346.397 39.4447L346.384 39.2449V39.0451V38.8453V38.6322V38.4324V38.2326L346.397 38.0195L346.41 37.8197L346.423 37.6066L346.436 37.4068L346.462 37.207L346.489 37.0072L346.515 36.8074L346.541 36.6076L346.567 36.4078L346.593 36.208L346.62 36.0082L346.659 35.8084L346.698 35.6086L346.738 35.4088L346.79 35.209L346.83 35.0092L346.882 34.8094L346.934 34.623L346.987 34.4365L347.039 34.2367L347.092 34.0502L347.157 33.8637L347.21 33.6773L347.275 33.4908L347.341 33.3043L347.407 33.1178L347.472 32.9314L347.538 32.7449L347.616 32.5717L347.695 32.3852L347.774 32.2121L347.852 32.0389L347.931 31.8658L348.01 31.6926L348.102 31.5195L348.193 31.3463L348.285 31.1732L348.377 31L348.469 30.8268L348.561 30.667L348.652 30.4939L348.757 30.334L348.862 30.1742L348.967 30.0143L349.072 29.8545L349.177 29.6947L349.282 29.5348L349.387 29.375L349.505 29.2152L349.623 29.0553L349.741 28.9088L349.859 28.7623L349.977 28.6158L350.095 28.4693L350.213 28.3227L350.344 28.1762L350.475 28.0297L350.607 27.8832L350.738 27.7367L350.869 27.6035L351 27.4703L351.144 27.3371L351.275 27.2039L351.407 27.0707L351.538 26.9375L351.682 26.8043L351.826 26.6844L351.97 26.5646L352.115 26.4447L352.259 26.3248L352.416 26.2049L352.561 26.085L352.718 25.9652L352.875 25.8586L353.033 25.7387L353.19 25.6322L353.348 25.5256L353.505 25.4191L353.662 25.3125L353.82 25.2059L353.977 25.0994L354.134 25.0061L354.305 24.9129L354.475 24.8064L354.646 24.7131L354.816 24.6199L354.987 24.5266L355.157 24.4334L355.328 24.3535L355.498 24.2736L355.669 24.1936L355.839 24.1137L356.01 24.0338L356.18 23.9539L356.364 23.8873L356.548 23.8207L356.731 23.7541L356.915 23.6875L357.098 23.6209L357.282 23.5543L357.466 23.501L357.649 23.4477L357.833 23.3945L358.016 23.3412L358.2 23.2879L358.384 23.2346L358.58 23.1947L358.764 23.1414L358.948 23.1014L359.144 23.0615L359.341 23.0215L359.538 22.9816L359.734 22.9549L359.931 22.9283L360.128 22.9016L360.325 22.875L360.521 22.8484L360.718 22.835L360.915 22.8217L361.111 22.8084L361.308 22.7951L361.505 22.7818L361.715 22.7684H361.911H362.121H362.318H362.528H362.725L362.921 22.7152L363.131 22.7285L363.328 22.7418L363.525 22.7551L363.734 22.7684L363.931 22.7951L364.128 22.8084L364.325 22.835L364.521 22.8617L364.718 22.8883L364.915 22.9283L365.111 22.9682L365.308 23.0082L365.505 23.0482L365.702 23.0881L365.885 23.1414L366.069 23.1947L366.252 23.248L366.436 23.3012L366.62 23.3545L366.803 23.4078L366.987 23.4611L367.17 23.5277L367.354 23.5943L367.538 23.6609L367.721 23.7275L367.905 23.7941L368.089 23.8607L368.272 23.9406L368.443 24.0205L368.626 24.1004L368.797 24.1803L368.967 24.2602L369.138 24.3402L369.308 24.4201L369.479 24.5133L369.649 24.6066L369.82 24.6998L369.99 24.793L370.161 24.8863L370.318 24.9928L370.475 25.0861L370.633 25.1926L370.79 25.2992L370.948 25.4057L371.105 25.5123L371.262 25.6189L371.42 25.7387L371.577 25.8453L371.734 25.9652L371.879 26.085L372.023 26.2049L372.167 26.3248L372.311 26.458L372.456 26.5779L372.6 26.7111L372.744 26.8443L372.889 26.9775L373.033 27.1107L373.164 27.2439L373.295 27.377L373.426 27.5102L373.557 27.6434L373.689 27.79L373.82 27.9365L373.951 28.083L374.069 28.2295L374.187 28.376L374.305 28.5225L374.423 28.6691L374.541 28.8156L374.659 28.9754L374.777 29.1219L374.895 29.2818L375 29.4416L375.105 29.6014L375.21 29.7613L375.315 29.9211L375.42 30.0809L375.525 30.2408L375.63 30.4139L375.721 30.5738L375.813 30.7469L375.905 30.9068L375.997 31.0799L376.089 31.2531L376.18 31.4262L376.272 31.5994L376.351 31.7725L376.43 31.9457L376.508 32.1189L376.587 32.292L376.666 32.4785L376.744 32.6516L376.823 32.8381L376.889 33.0113L376.954 33.1977L377.02 33.3842L377.085 33.5707L377.151 33.7572L377.203 33.9436L377.269 34.1301L377.321 34.3166L377.374 34.5164L377.426 34.7029L377.479 34.9027L377.531 35.0891L377.571 35.2889L377.61 35.4887L377.649 35.6885L377.689 35.8883L377.728 36.0881L377.754 36.2879L377.78 36.4877L377.807 36.6875L377.833 36.8873L377.859 37.0871L377.885 37.2869L377.898 37.4867L377.911 37.6865L377.925 37.8863L377.938 38.0861V38.2992V38.499V38.6988L377.964 38.8852Z" fill="#E60012"/>

                    <path fill-rule="evenodd" clip-rule="evenodd" d="M104.231 107.147C104.231 108.588 103.044 109.512 101.552 109.947H101.526C100.232 110.301 98.6751 110.301 97.3817 109.947C96.0619 109.553 94.7025 108.696 94.7025 107.079V98.9079C94.7025 97.29 96.1015 96.4335 97.3817 96.0801C98.0416 95.9033 98.7411 95.7946 99.467 95.7946C100.167 95.7946 100.892 95.9033 101.526 96.0801C103.057 96.5151 104.245 97.4396 104.245 98.8807H105.987C105.987 96.4743 104.245 95.006 102.027 94.3671C101.196 94.1496 100.325 94 99.4934 94C98.6223 94 97.7513 94.1496 96.9594 94.3671C94.8345 94.9789 93 96.4471 93 98.8807V107.092C93 109.566 94.8081 111.076 96.9594 111.674C98.5959 112.109 100.404 112.109 102.041 111.674V111.619C104.271 111.008 106 109.498 106 107.133H104.231V107.147Z" fill="#000000"/>

                    <path fill-rule="evenodd" clip-rule="evenodd" d="M121.783 98.8396C121.783 97.4374 122.981 96.5117 124.484 96.0761C125.815 95.7085 127.332 95.7085 128.662 96.0761C131.789 96.9746 132.348 101.276 129.367 102.706C127.012 103.849 123.3 103.455 121.796 103.536V98.8396H121.783ZM121.783 105.115C124.138 105.115 127.744 105.619 130.206 104.258C134.45 101.957 133.678 95.7493 129.115 94.3471C127.465 93.8843 125.682 93.8843 124.032 94.3471C121.756 95.0006 120 96.4572 120 98.826V106.79C120 107.797 120.213 108.696 120.772 109.513C121.69 110.765 123.3 111.596 125.083 111.881C126.134 112.058 127.079 112.031 128.13 111.841C129.913 111.555 131.629 110.833 132.654 109.145L131.15 108.206C130.379 109.322 129.181 109.853 127.89 110.03C126.946 110.207 126.067 110.207 125.123 110.03C123.899 109.812 122.808 109.24 122.209 108.41C121.889 107.947 121.783 107.471 121.783 106.899V105.115Z" fill="#000000"/>

                    <path fill-rule="evenodd" clip-rule="evenodd" d="M153.935 87V94.1965H151V95.7238H153.935V106.247C153.935 110.026 156.897 111.152 160 110.984V109.418C157.75 109.353 155.642 109.081 155.642 106.221V95.7756C157.013 95.7367 158.332 95.7367 159.703 95.7367V94.2094H155.642V87.0129H153.935V87Z" fill="#000000"/>

                    <path fill-rule="evenodd" clip-rule="evenodd" d="M163 90.052H165V87H163V90.052ZM163.107 111H164.893V94.2208H163.107V111Z" fill="#000000"/>

                    <path fill-rule="evenodd" clip-rule="evenodd" d="M175.322 112L179.726 107.348C180.802 106.189 181 105.498 181 104.256V94H179.367V104.256C179.367 105.015 179.268 105.305 178.786 105.83L175 109.833L171.214 105.83C170.72 105.319 170.658 105.029 170.658 104.256V94H169V104.256C169 105.498 169.198 106.189 170.274 107.348L174.678 112H175.322Z" fill="#000000"/>

                    <path fill-rule="evenodd" clip-rule="evenodd" d="M186.783 98.8396C186.783 97.4374 187.981 96.5117 189.484 96.0761C190.815 95.7085 192.318 95.7085 193.649 96.0761C196.776 96.9746 197.335 101.276 194.354 102.706C192.012 103.849 188.287 103.455 186.783 103.536V98.8396ZM186.783 105.115C189.138 105.115 192.744 105.619 195.206 104.258C199.45 101.957 198.678 95.7493 194.115 94.3471C192.465 93.8843 190.682 93.8843 189.032 94.3471C186.756 95.0006 185 96.4572 185 98.826V106.79C185 107.797 185.213 108.696 185.772 109.513C186.677 110.765 188.3 111.596 190.083 111.881C191.134 112.058 192.079 112.031 193.13 111.841C194.913 111.555 196.643 110.833 197.654 109.145L196.15 108.206C195.379 109.322 194.194 109.853 192.89 110.03C191.946 110.207 191.067 110.207 190.123 110.03C188.899 109.812 187.808 109.24 187.209 108.41C186.889 107.947 186.783 107.471 186.783 106.899V105.115Z" fill="#000000"/>

                    <path fill-rule="evenodd" clip-rule="evenodd" d="M219.505 101.112C216.009 100.439 212.514 100.654 210.331 102.148C206.728 104.517 207.29 110.345 212.098 111.65C212.942 111.865 213.826 112 214.67 112C216.397 112 218.299 111.65 219.826 110.156C220.362 111.26 221.527 111.677 223 111.583V109.981C222.116 109.981 221.272 109.631 221.272 108.312V98.9851C221.272 98.0295 221.098 97.1412 220.536 96.3202C218.205 93.09 210.652 93.2649 208.576 96.6432L210.09 97.5988C210.826 96.4951 212.058 95.9702 213.331 95.7549C214.322 95.6068 215.165 95.5799 216.116 95.7549C217.389 95.9971 218.473 96.5355 219.076 97.3834C219.397 97.8141 219.505 98.3121 219.505 98.837V101.112ZM219.505 107.209C219.505 109.483 216.505 110.183 214.67 110.183C213.933 110.183 213.223 110.116 212.594 109.941C209.206 108.985 208.991 105.149 211.469 103.413C213.478 102 216.906 102.067 219.518 102.74V107.209H219.505Z" fill="#000000"/>

                    <path fill-rule="evenodd" clip-rule="evenodd" d="M234.278 106.342C233.702 106.513 233.084 106.618 232.439 106.697C231.794 106.723 231.135 106.723 230.518 106.631C228.527 106.356 226.825 105.423 226.825 103.795V98.8451C226.825 97.4927 228.02 96.5998 229.612 96.1796C230.257 96.0089 230.984 95.9433 231.739 95.9433C232.494 95.9433 233.222 96.0089 233.908 96.1796C235.459 96.5998 236.694 97.4927 236.694 98.8451V103.795C236.694 105.029 235.651 105.896 234.278 106.342ZM236.337 95.2999C235.761 94.9585 235.102 94.6696 234.388 94.4989C233.565 94.2626 232.645 94.1576 231.753 94.1576C230.888 94.1576 229.982 94.2626 229.118 94.4989C226.798 95.0898 225 96.5473 225 98.8319V103.782C225 105.371 225.865 106.592 227.21 107.34C227.059 107.406 226.922 107.511 226.812 107.616C225.261 108.863 225.878 111.253 228.555 111.66C231.41 112.107 236.543 110.767 236.543 114.194V114.811C236.543 116.059 235.857 116.545 234.484 116.991C233.222 117.411 231.08 117.516 229.42 117.03C228.157 116.65 227.141 116.059 227.031 114.851C226.963 114.365 226.99 113.774 227.141 113.288H225.329C225.151 113.8 225.151 114.391 225.178 114.943C225.329 117.122 226.908 118.225 229.049 118.685C230.024 118.921 231.039 119 232.055 119C233.029 119 234.086 118.934 234.992 118.659C237.051 118.107 238.396 116.965 238.396 114.811V114.194C238.396 108.968 232.494 110.597 229.022 110.032C227.361 109.756 227.786 108.168 229.31 108.168C229.598 108.233 229.927 108.312 230.243 108.338H230.284C231.039 108.443 231.835 108.47 232.604 108.404C233.4 108.364 234.155 108.194 234.882 107.984C236.982 107.288 238.533 105.909 238.533 103.756V98.8057C238.533 97.8734 238.245 97.0725 237.737 96.416L239 95.1423L237.627 94L236.337 95.2999Z" fill="#000000"/>

                    <path fill-rule="evenodd" clip-rule="evenodd" d="M243.783 98.8396C243.783 97.4374 244.981 96.5117 246.484 96.0761C247.815 95.7085 249.318 95.7085 250.662 96.0761C253.789 96.9746 254.348 101.276 251.367 102.706C249.012 103.849 245.3 103.455 243.796 103.536V98.8396H243.783ZM243.783 105.115C246.125 105.115 249.744 105.619 252.206 104.258C256.45 101.957 255.678 95.7493 251.115 94.3471C249.465 93.8843 247.682 93.8843 246.032 94.3471C243.756 95.0006 242 96.4572 242 98.826V106.79C242 107.797 242.213 108.696 242.772 109.513C243.677 110.765 245.3 111.596 247.083 111.881C248.134 112.058 249.079 112.031 250.13 111.841C251.913 111.555 253.629 110.833 254.654 109.145L253.15 108.206C252.379 109.322 251.181 109.853 249.89 110.03C248.946 110.207 248.067 110.207 247.123 110.03C245.899 109.812 244.808 109.24 244.209 108.41C243.889 107.947 243.783 107.471 243.783 106.899V105.115Z" fill="#000000"/>

                    <path fill-rule="evenodd" clip-rule="evenodd" d="M271 110.987V98.813C271 95.4752 267.711 93.9745 264.487 94.0003C262.855 94.0003 261.053 94.4143 259.763 95.7727V94.2073H258V110.987H259.763V99.0588C259.763 96.743 262.158 95.6822 264.513 95.6822C266.868 95.6822 269.237 96.7689 269.237 98.7871V111H271V110.987Z" fill="#000000"/>

                    <path fill-rule="evenodd" clip-rule="evenodd" d="M285.245 107.147C285.245 108.588 284.057 109.512 282.565 109.947H282.539C281.246 110.301 279.688 110.301 278.395 109.947C277.075 109.553 275.716 108.696 275.716 107.079V98.9079C275.716 97.29 277.102 96.4335 278.395 96.0801C279.055 95.9033 279.754 95.7946 280.48 95.7946C281.18 95.7946 281.906 95.9033 282.539 96.0801C284.07 96.5151 285.245 97.4396 285.245 98.8807H286.987C286.987 96.4743 285.245 95.006 283.027 94.3671C282.196 94.1496 281.325 94 280.493 94C279.622 94 278.751 94.1496 277.959 94.3671C275.835 94.9789 274 96.4471 274 98.8807V107.092C274 109.566 275.808 111.076 277.959 111.674C279.596 112.109 281.404 112.109 283.041 111.674V111.619C285.271 111.008 287 109.498 287 107.133H285.245V107.147Z" fill="#000000"/>

                    <path fill-rule="evenodd" clip-rule="evenodd" d="M110.781 111V99.0091C110.781 96.2769 115.408 95.1244 117.721 95.8755L118 94.2698C115.554 93.6482 112.217 94.0367 110.715 96.1085V94.2698H109V99.035V103.399V111H110.781Z" fill="#000000"/>

                    <path fill-rule="evenodd" clip-rule="evenodd" d="M303.987 113.82V94H302.248V106.675C302.248 107.28 302.143 107.805 301.8 108.276C300.997 109.379 299.337 109.904 297.599 109.904L297.493 109.945C296.282 109.904 295.07 109.662 294.122 109.097C293.252 108.559 292.765 107.859 292.765 106.783V94H291V106.823C291 108.491 291.869 109.81 293.226 110.617C295.728 112.138 299.891 112.286 302.248 110.052V113.537V113.82V114.143C302.209 115.663 300.931 116.591 299.574 116.982C298.955 117.157 298.218 117.224 297.533 117.224C295.9 117.224 293.95 116.766 292.989 115.313L291.501 116.134C292.607 118.26 295.347 119 297.546 119C298.376 119 299.245 118.892 300.075 118.65C302.196 118.085 304 116.591 304 114.143V113.82H303.987Z" fill="#000000"/>

                    <path fill-rule="evenodd" clip-rule="evenodd" d="M146.505 101.112C143.009 100.439 139.514 100.654 137.331 102.148C133.728 104.517 134.29 110.345 139.098 111.65C139.942 111.865 140.826 112 141.67 112C143.397 112 145.299 111.65 146.826 110.156C147.362 111.26 148.527 111.677 150 111.583V109.981C149.116 109.981 148.272 109.631 148.272 108.312V98.9851C148.272 98.0295 148.098 97.1412 147.536 96.3202C145.205 93.09 137.652 93.2649 135.576 96.6432L137.09 97.5988C137.826 96.4951 139.072 95.9702 140.344 95.7549C141.335 95.6068 142.179 95.5799 143.13 95.7549C144.402 95.9971 145.5 96.5355 146.089 97.3834C146.397 97.8141 146.505 98.3121 146.505 98.837V101.112ZM146.505 107.209C146.505 109.483 143.505 110.183 141.67 110.183C140.933 110.183 140.223 110.116 139.581 109.941C136.192 108.985 135.978 105.149 138.456 103.413C140.464 102 143.893 102.067 146.505 102.74V107.209Z" fill="#000000"/>

                    <path d="M295.794 14.5181C291.375 11.771 280.56 11.851 276.207 14.5181C274.519 15.5582 273.556 17.0118 273.556 18.7188V38.6554H298.524V18.7188C298.524 17.0385 297.508 15.5716 295.794 14.5181ZM272.844 8.97049C279.333 5.00984 292.734 5.00984 299.157 8.97049C302.243 10.8241 304.486 13.7313 304.868 17.5586L305 68.487H298.524V45.2031H273.556V68.487H267.08V18.7188C267.08 14.3314 269.467 11.0108 272.844 8.97049ZM24.9704 61.5525C28.4129 60.579 30.4441 58.6453 30.4441 56.2049V55.0848L36.9203 54.9514V56.1249C36.9203 62.4593 32.3171 66.2466 26.7642 67.8602C22.0291 69.1937 14.3396 69.1937 9.68362 67.9535C3.9725 66.4466 -0.907672 62.566 -1 56.2183V18.8788C-0.907672 11.8643 4.92216 7.94365 11.2796 6.70345C16.041 5.8233 22.9788 5.90332 27.5688 7.42357C32.7919 9.21053 36.9203 12.9311 36.9203 18.8788V20.0256H30.4441V18.8788C30.4441 16.4651 28.5976 14.6381 25.5903 13.5979C21.9632 12.3977 16.3708 12.3844 12.4666 13.1312C8.24595 13.9713 5.48931 16.065 5.48931 18.8921V56.2049C5.48931 58.6853 7.69198 60.6457 11.3587 61.6325C15.1178 62.606 21.2246 62.606 24.9704 61.5525ZM77.7818 13.1578H50.7034V34.228H77.7818V40.8557H50.7034C50.6903 42.7227 50.6507 45.9232 50.6507 49.0571C50.6639 53.1378 50.7694 56.6584 50.9804 57.2718C52.0488 60.4323 57.0741 61.8459 61.0837 61.8459H77.7818V68.4736L61.0969 68.3936C53.8822 68.4736 44.2273 65.0197 44.2273 55.8582V6.59677H77.7818V13.1578ZM92.3168 54.578C92.3168 59.8322 97.7114 61.8592 102.869 61.8592H116.19V68.487H102.869C94.625 68.487 85.7616 65.0464 85.7616 54.578V6.59677H92.33V54.578H92.3168ZM155.614 13.1578H128.549V34.228H155.614V40.8557H128.536C128.522 42.7227 128.483 45.9232 128.483 49.0571C128.496 53.1378 128.602 56.6584 128.813 57.2718C129.881 60.4323 134.906 61.8459 138.916 61.8459H155.601V68.4736L138.929 68.3936C131.714 68.4736 122.059 65.0197 122.059 55.8582V6.59677H155.614V13.1578ZM172.813 60.579C174.633 61.7659 178.01 62.4593 181.637 62.4593H182.903C186.781 62.4593 190.356 62.0059 192.321 60.7524C194.035 59.7389 195.051 58.1253 195.051 56.2049V6.59677H201.527V56.1916C201.527 60.579 199.245 63.9796 195.684 66.1933C192.571 68.1402 187.704 69.0871 182.969 68.9937H182.152C177.416 69.0737 172.549 68.1269 169.437 66.1933C165.889 63.9796 163.594 60.579 163.594 56.1916V6.59677H170.07V56.1916C170.07 58.0853 171.059 59.5388 172.813 60.579ZM251.701 21.3192L236.493 54.1913H231.6L216.392 21.3192V68.487H209.823V6.59677H216.906L234 44.643L251.186 6.59677H258.269V68.487H251.701V21.3192Z" fill="#000000"/>

                </g>

                <defs>

                    <clipPath id="clip0_597_3366">

                        <rect width="395" height="119" fill="white"/>

                    </clipPath>

                </defs>

            </svg>