<svg viewBox="0 0 45 45" fill="#E60012" xmlns="http://www.w3.org/2000/svg">
                                <path d="M22.5 0C10.0789 0 0 10.0697 0 22.5C0 34.9303 10.0697 45 22.5 45C34.9211 45 45 34.9303 45 22.5C45 10.0697 34.9211 0 22.5 0ZM33.0215 23.459V23.5328H33.0031C32.957 28.5768 28.8535 32.6527 23.8002 32.6527C21.1352 32.6527 18.7377 31.5184 17.0594 29.7111C16.9949 29.6373 16.9396 29.5635 16.8842 29.4805C16.8012 29.3699 16.7183 29.25 16.6353 29.1301C16.5707 29.0379 16.5061 28.9457 16.4508 28.8443C17.3268 29.2131 18.2582 29.3883 19.1988 29.3791H19.208H19.2356H19.2449H19.3094H19.3279H19.3555H19.4109H19.4293H19.457H19.5123H19.5307H19.5584H19.623L19.6875 29.3699L19.7613 29.3607L19.8351 29.3514L19.8996 29.3422H19.9457H19.9734L20.0195 29.333L20.1301 29.3238L20.1947 29.3146L20.2408 29.3053L20.2685 29.2961L20.3053 29.2869L20.3422 29.2777L20.3975 29.2684L20.4529 29.2592L20.5451 29.2408L20.5912 29.2316L20.6465 29.2223L20.6834 29.2131C20.7387 29.2039 20.8033 29.1855 20.8586 29.167L20.9693 29.1393L21.0154 29.1209L21.0522 29.1117C21.1537 29.084 21.2551 29.0564 21.3566 29.0195C21.3935 29.0102 21.4396 28.9918 21.4764 28.9734L21.5318 28.9549C21.5963 28.9365 21.6609 28.9088 21.7254 28.8811L21.79 28.8535C21.8269 28.835 21.8637 28.8166 21.9098 28.8074L21.9467 28.7889C21.9928 28.7705 22.0389 28.7428 22.085 28.7244L22.168 28.6875L22.2234 28.6598C22.2603 28.6414 22.3063 28.6137 22.3525 28.5953L22.4447 28.5492C22.6199 28.457 22.7859 28.3555 22.9518 28.2449C23.2838 28.0236 23.6065 27.7746 23.9016 27.498C26.7141 24.8699 26.8709 20.4713 24.2428 17.6588L24.2336 17.6496L24.2244 17.6311L24.2152 17.6219L24.2059 17.6127L24.1875 17.5943L24.1691 17.585L24.1598 17.5758L24.1506 17.5666L24.1322 17.5482L24.1137 17.5297L24.0861 17.5205L24.0676 17.502L24.0492 17.4836L24.0307 17.4652L24.0123 17.4559L23.9938 17.4375L23.9754 17.4191L23.957 17.4006L23.9385 17.3914L23.9201 17.373L23.9016 17.3545L23.8924 17.3453L23.874 17.3268L23.8555 17.3176L23.8463 17.2992L23.8279 17.29L23.8094 17.2807L23.8002 17.2715L23.7818 17.2623L23.7633 17.2531L23.7449 17.2346L23.7264 17.2254L23.7172 17.2162L23.6988 17.207L23.6896 17.1977L23.6711 17.1885L23.6619 17.1793L23.6434 17.1701L23.625 17.1609L23.6158 17.1516L23.5973 17.1424L23.5881 17.1332L23.5789 17.124L23.5697 17.1055L23.5604 17.0963L23.542 17.0871L23.5328 17.0779L23.5236 17.0686L23.5051 17.0594L23.4867 17.0502L23.4775 17.041L23.4682 17.0318L23.4498 17.0225L23.4406 17.0133L23.4221 17.0041L23.4129 16.9949L23.4037 16.9857L23.3945 16.9764L23.3852 16.9672L23.376 16.958L23.3668 16.9488V16.8842L23.3576 16.875L23.3484 16.8658L23.3391 16.8566L23.3299 16.8473L23.3207 16.8381L23.3115 16.8289L23.293 16.8197L23.2838 16.8105L23.2746 16.8012L23.2654 16.792L23.2562 16.7828L23.2469 16.7736L23.2377 16.7643L23.2285 16.7551L23.2193 16.7459L23.21 16.7367L23.2008 16.7275L23.1916 16.7182L23.1824 16.709L23.1732 16.6998L23.1639 16.6906L23.1547 16.6814L23.1455 16.6721L23.127 16.6629L23.1086 16.6537L23.0994 16.6445L23.0809 16.6352L23.0717 16.626L23.0625 16.6168L23.0441 16.6076L23.0349 16.5984L23.0164 16.5891L22.9611 16.5984L22.9426 16.5891L22.9334 16.5799L22.915 16.5707L22.9057 16.5615L22.8965 16.5523L22.8781 16.543L22.8688 16.5338L22.8596 16.5246L22.8504 16.5154L22.8412 16.5061L22.832 16.4969L22.8135 16.4877L22.8043 16.4785L22.7951 16.4693L22.7859 16.46L22.7766 16.4508L22.7674 16.4416L22.7582 16.4324L22.749 16.4232L22.7398 16.4139L22.7305 16.4047L22.7213 16.3955L22.7121 16.3863L22.7029 16.3771L22.6936 16.3678L22.6844 16.3586L22.6752 16.3494L22.666 16.3402L22.6568 16.3309L22.6475 16.3217L22.6383 16.3125L22.6291 16.3033L22.6199 16.2941L22.6014 16.2848L22.5922 16.2756L22.583 16.2664L22.5738 16.2572L22.5553 16.248L22.5461 16.2387L22.5369 16.2295L22.5184 16.2203L22.5092 16.2111L22.5 16.2018L22.4908 16.1926L22.4816 16.1834L22.4723 16.1742L22.4631 16.165L22.4539 16.1557L22.4447 16.1465L22.4354 16.1373L22.4262 16.1281L22.417 16.1189L22.4078 16.1096L22.3986 16.1004H22.3893L22.3801 16.0912L22.3617 16.082L22.3525 16.0727L22.3433 16.0635L22.334 16.0543L22.3248 16.0451L22.3156 16.0359L22.3064 16.0266L22.2971 16.0174L22.2879 16.0082L22.2787 15.999L22.2695 15.9898L22.2602 15.9805L22.251 15.9713L22.2418 15.9621H22.2326H22.2234L22.2141 15.9529L22.2049 15.9436H22.1957L22.1865 15.9344H22.1772L22.168 15.9252H22.1588L22.1496 15.916L22.1404 15.9068H22.1312L22.1219 15.8975H22.1127L22.1035 15.8883L22.0943 15.8791H22.085H22.0758L22.0666 15.8699H22.0574L22.0482 15.8607H22.0389L22.0297 15.8514H22.0205L22.0113 15.8422H22.002L21.9928 15.833H21.9836H21.9744L21.9652 15.8238L21.9559 15.8145H21.9467H21.9375L21.9283 15.8053L21.9191 15.7961H21.9098L21.9006 15.7869H21.8914L21.8822 15.7777H21.873C19.4662 14.8648 16.6445 15.3166 14.6342 17.1885C11.1209 20.4621 11.2592 26.5205 14.542 30.0246C17.751 33.4641 21.7438 34.6352 25.46 33.8238L25.3494 33.8607L25.2203 33.8975L25.0912 33.9344L24.9621 33.9713L24.833 34.0082L24.7039 34.0359L24.5748 34.0727L24.4365 34.1004L24.2982 34.1281L24.1598 34.1557L24.0215 34.1834L23.8832 34.2018L23.7449 34.2203L23.6066 34.2387L23.4682 34.2572L23.3299 34.2756L23.1916 34.2848L23.0533 34.2941L22.915 34.3033L22.7766 34.3125L22.6291 34.3217H22.4908H22.3525H22.2141H22.0666H21.9191L21.5225 34.4508H21.3842L21.2459 34.4416L21.0984 34.4324L20.9601 34.4232L20.8217 34.4139L20.6834 34.3955L20.5451 34.377L20.4068 34.3586L20.2685 34.3402L20.1301 34.3217L19.9918 34.2941L19.8535 34.2664L19.7152 34.2387L19.5861 34.2111L19.4477 34.1834L19.3186 34.1465L19.1619 34.1189L19.0328 34.082L18.9037 34.0451L18.7746 34.0082L18.6455 33.9713L18.5164 33.9344L18.3873 33.8883L18.2582 33.8422L18.1291 33.7961L18 33.75L17.8709 33.7039L17.7418 33.6486L17.6219 33.5932L17.5021 33.5379L17.3822 33.4826L17.2531 33.4273L17.1332 33.3719L17.0133 33.3166L16.8935 33.2521L16.7736 33.1875L16.6537 33.123L16.5338 33.0584L16.4139 32.9939L16.3033 32.9293L16.1834 32.8555L16.0727 32.7818L15.9621 32.708L15.8514 32.6342L15.7408 32.5605L15.6301 32.4867L15.5195 32.4129L15.4088 32.3299L15.2982 32.2469L15.1967 32.1639L15.0676 32.0994L14.957 32.0164L14.8555 31.9334L14.7541 31.8504L14.6527 31.7674L14.5512 31.6752L14.4498 31.5922L14.3484 31.5L14.2469 31.4078L14.1547 31.3156L14.0625 31.2234L13.9703 31.1311L13.8781 31.0297L13.7858 30.9375L13.6937 30.8361L13.6107 30.7346L13.5184 30.6332L13.4355 30.5318L13.3525 30.4303L13.2695 30.3289L13.1865 30.2275L13.1035 30.1168L13.0205 30.0154L12.9375 29.9047L12.8637 29.8033L12.79 29.6926L12.7162 29.582L12.6424 29.4713L12.5687 29.3607L12.4949 29.25L12.4211 29.1393L12.3473 29.0287L12.2828 28.9088L12.2182 28.7982L12.1537 28.6783L12.0891 28.5584L12.0246 28.4385L11.96 28.3186L11.9047 28.1988L11.8494 28.0789L11.7941 27.959L11.7387 27.8391L11.6834 27.71L11.6373 27.5902L11.582 27.4611L11.5359 27.332L11.4897 27.2029L11.4437 27.0738L11.3975 26.9447L11.3514 26.8156L11.3145 26.6865L11.2777 26.5574L11.2408 26.4283L11.2039 26.2992L11.167 26.1701L11.1393 26.041L11.1025 25.9119L11.0748 25.7736L11.0471 25.6352L11.0195 25.5061L10.9918 25.3678L10.9641 25.2295L10.9457 25.0912L10.9273 24.9529L10.9088 24.8146L10.8904 24.6762L10.8719 24.5379L10.8627 24.3996L10.8535 24.2613L10.8443 24.123L10.835 23.9846L10.8258 23.8463L10.8166 23.708V23.5697V23.4314V23.2838V23.1455V23.0072L10.8258 22.8596L10.835 22.7213L10.8443 22.5738L10.8535 22.4355L10.8719 22.2971L10.8904 22.1588L10.9088 22.0205L10.9273 21.8822L10.9457 21.7439L10.9641 21.6055L10.9826 21.4672L11.0103 21.3289L11.0379 21.1906L11.0656 21.0523L11.1025 20.9139L11.1301 20.7756L11.167 20.6373L11.2039 20.5082L11.2408 20.3791L11.2777 20.2408L11.3145 20.1117L11.3607 19.9826L11.3975 19.8535L11.4437 19.7244L11.4897 19.5953L11.5359 19.4662L11.582 19.3371L11.6281 19.208L11.6834 19.0881L11.7387 18.959L11.7941 18.8391L11.8494 18.7193L11.9047 18.5994L11.96 18.4795L12.0246 18.3596L12.0891 18.2398L12.1537 18.1199L12.2182 18L12.2828 17.8801L12.3473 17.7695L12.4119 17.6496L12.4857 17.5389L12.5594 17.4283L12.6332 17.3176L12.707 17.207L12.7807 17.0963L12.8545 16.9857L12.9283 16.875L13.0113 16.7643L13.0942 16.6537L13.1773 16.5523L13.2603 16.4508L13.3432 16.3494L13.4262 16.248L13.5092 16.1465L13.6014 16.0451L13.6937 15.9436L13.7858 15.8422L13.8781 15.7408L13.9703 15.6486L14.0625 15.5564L14.1639 15.4641L14.2561 15.3719L14.3484 15.2797L14.4406 15.1875L14.542 15.0953L14.6435 15.0123L14.7449 14.9293L14.8463 14.8463L14.9477 14.7633L15.0584 14.6803L15.1598 14.5973L15.2705 14.5143L15.3811 14.4406L15.4918 14.3576L15.6024 14.2838L15.7131 14.21L15.8238 14.1363L15.9344 14.0625L16.0451 13.9887L16.1557 13.915L16.2664 13.8504L16.3863 13.7859L16.5061 13.7121L16.626 13.6475L16.7459 13.583L16.8658 13.5184L16.9856 13.4539L17.1055 13.3986L17.2254 13.3432L17.3453 13.2879L17.4652 13.2326L17.5851 13.1773L17.7049 13.1219L17.834 13.0758L17.9631 13.0297L18.0922 12.9836L18.2213 12.9375L18.3504 12.8914L18.4795 12.8453L18.6086 12.8084L18.7377 12.7715L18.8668 12.7346L18.9959 12.6977L19.125 12.6609L19.2541 12.624L19.3924 12.5963L19.5215 12.5594L19.6506 12.5318L19.7889 12.5041L19.9272 12.4764L20.0656 12.4488L20.2039 12.4303L20.3422 12.4119L20.4805 12.3934L20.6188 12.375L20.7572 12.3566L20.8955 12.3473L21.0338 12.3381L21.1721 12.3289L21.3104 12.3197L21.4488 12.3105L21.5963 12.3012H21.7346H21.8822H22.0205H22.168H22.3064L22.4447 12.2643L22.5922 12.2736L22.7305 12.2828L22.8688 12.292L23.0164 12.3012L23.1547 12.3197L23.293 12.3289L23.4314 12.3473L23.5697 12.3658L23.708 12.3842L23.8463 12.4119L23.9846 12.4395L24.123 12.4672L24.2613 12.4949L24.3996 12.5225L24.5287 12.5594L24.6578 12.5963L24.7869 12.6332L24.916 12.6701L25.0451 12.707L25.1742 12.7439L25.3033 12.7807L25.4324 12.8268L25.5615 12.873L25.6906 12.9191L25.8197 12.9652L25.9488 13.0113L26.0779 13.0574L26.207 13.1127L26.3268 13.168L26.456 13.2234L26.5758 13.2787L26.6957 13.334L26.8156 13.3893L26.9354 13.4447L27.0553 13.5092L27.1752 13.5738L27.2951 13.6383L27.415 13.7029L27.5348 13.7674L27.6455 13.8412L27.7562 13.9057L27.8668 13.9795L27.9775 14.0533L28.0881 14.127L28.1988 14.2008L28.3094 14.2746L28.4201 14.3576L28.5307 14.4314L28.6414 14.5143L28.7428 14.5973L28.8443 14.6803L28.9457 14.7633L29.0471 14.8555L29.1486 14.9385L29.25 15.0307L29.3514 15.123L29.4529 15.2152L29.5543 15.3074L29.6465 15.3996L29.7387 15.4918L29.831 15.584L29.9231 15.6762L30.0154 15.7777L30.1076 15.8791L30.1998 15.9805L30.2828 16.082L30.3658 16.1834L30.4488 16.2848L30.5318 16.3863L30.6147 16.4877L30.6978 16.5984L30.7807 16.6998L30.8637 16.8105L30.9375 16.9211L31.0113 17.0318L31.085 17.1424L31.1588 17.2531L31.2326 17.3637L31.3063 17.4744L31.3801 17.5943L31.4447 17.7049L31.5092 17.8248L31.5738 17.9355L31.6383 18.0553L31.7029 18.1752L31.7674 18.2951L31.832 18.415L31.8873 18.5348L31.9426 18.6547L31.9979 18.7746L32.0533 18.8945L32.1086 19.0236L32.1639 19.1434L32.2193 19.2725L32.2654 19.3924L32.3115 19.5215L32.3576 19.6506L32.4037 19.7797L32.4498 19.9088L32.4867 20.0379L32.5328 20.167L32.5697 20.2961L32.6066 20.4344L32.6434 20.5635L32.6803 20.7018L32.7172 20.8309L32.7449 20.9693L32.7726 21.1076L32.8002 21.2459L32.8279 21.3842L32.8555 21.5225L32.874 21.6609L32.8924 21.7992L32.9109 21.9375L32.9293 22.0758L32.9478 22.2141L32.9662 22.3525L32.9754 22.4908L32.9846 22.6291L32.9939 22.7674L33.0031 22.9057V23.0533V23.1916V23.3299L33.0215 23.459Z"></path>
                            </svg>